<?xml version="1.0" encoding="UTF-8"?>
<svg width="210mm" height="297mm" version="1.1" xmlns="http://www.w3.org/2000/svg">
 <g transform="translate(-14,8)">
  <path d="m390.91 130.75c-199.85-0.16897-364.46 158.26-369.72 358.09-5.3451 203 155.79 371.87 359.91 377.19 204.12 5.3158 373.94-154.93 379.28-357.94s-155.81-371.9-359.94-377.22c-3.1894-0.0831-6.3591-0.12232-9.5312-0.125zm0 2.5938c3.1499 3e-3 6.303 2e-3 9.4688 0.125 207.75 8.0948 87.303 195.87-9.4375 360.03 99.837-0.43533 182.18 79.242 184.81 179.81 2.1768 83.351-51.086 155.24-126.16 180.16-14.386 7.3038-36.392 10.803-68.438 9.9688-202.69-5.282-362.68-172.96-357.37-374.53 5.2247-198.43 168.68-355.73 367.12-355.56z" stroke-width="0"/>
  <path d="m398.71 131.75c-1.5805 1e-3 -3.161 0.0215-4.75 0.0625-101.7 2.6216-181.98 85.915-179.31 186.03 2.6631 100.12 87.268 179.15 188.97 176.53s181.98-85.915 179.31-186.03c-2.6232-98.55-84.65-176.68-184.22-176.59zm-1.4375 120.78c32.114-0.8393 58.815 24.48 59.656 56.531 0.84095 32.052-24.51 58.723-56.625 59.562s-58.815-24.479-59.656-56.531 24.51-58.723 56.625-59.562z"/>
  <path transform="matrix(.2994 0 0 .29881 285.55 627.4)" d="m545.65 178.7a194.29 194.29 0 1 1 -9e-5 -3e-3l-194.22 5.0892z"/>
 </g>
</svg>
